<?xml version="1.0" encoding="UTF-8"?>
<svg width="700pt" height="700pt" version="1.1" viewBox="0 0 700 700" xmlns="http://www.w3.org/2000/svg" xmlns:xlink="http://www.w3.org/1999/xlink">
 <defs>
  <symbol id="v" overflow="visible">
   <path d="m6.1875-0.375c-0.32422 0.16797-0.65625 0.29297-1 0.375s-0.70312 0.125-1.0781 0.125c-1.125 0-2.0156-0.3125-2.6719-0.9375s-0.98438-1.4727-0.98438-2.5469c0-1.0703 0.32812-1.9219 0.98438-2.5469 0.65625-0.63281 1.5469-0.95312 2.6719-0.95312 0.375 0 0.73438 0.046875 1.0781 0.14062 0.34375 0.085938 0.67578 0.20312 1 0.35938v1.4062c-0.32422-0.21875-0.64062-0.37891-0.95312-0.48438-0.3125-0.10156-0.64062-0.15625-0.98438-0.15625-0.625 0-1.1172 0.19922-1.4688 0.59375-0.35547 0.39844-0.53125 0.94531-0.53125 1.6406 0 0.69922 0.17578 1.2461 0.53125 1.6406 0.35156 0.39844 0.84375 0.59375 1.4688 0.59375 0.34375 0 0.67188-0.050781 0.98438-0.15625 0.3125-0.10156 0.62891-0.26562 0.95312-0.48438z"/>
  </symbol>
  <symbol id="c" overflow="visible">
   <path d="m4.5312-3.6719c-0.14844-0.070313-0.29297-0.125-0.4375-0.15625-0.13672-0.03125-0.27344-0.046875-0.40625-0.046875-0.41797 0-0.74219 0.13672-0.96875 0.40625-0.21875 0.26172-0.32812 0.64062-0.32812 1.1406v2.3281h-1.6094v-5.0469h1.6094v0.82812c0.20703-0.33203 0.44531-0.57031 0.71875-0.71875 0.26953-0.15625 0.59375-0.23438 0.96875-0.23438 0.050781 0 0.10938 0.007813 0.17188 0.015625 0.0625 0 0.14844 0.007812 0.26562 0.015625z"/>
  </symbol>
  <symbol id="b" overflow="visible">
   <path d="m5.8125-2.5312v0.45312h-3.7656c0.03125 0.375 0.16016 0.66406 0.39062 0.85938 0.23828 0.1875 0.57031 0.28125 1 0.28125 0.34375 0 0.69141-0.050781 1.0469-0.15625 0.35156-0.10156 0.71875-0.25391 1.0938-0.45312v1.2344c-0.38672 0.14844-0.77344 0.25781-1.1562 0.32812-0.375 0.070312-0.75781 0.10938-1.1406 0.10938-0.90625 0-1.6172-0.22656-2.125-0.6875-0.51172-0.46875-0.76562-1.1172-0.76562-1.9531 0-0.82031 0.25-1.4688 0.75-1.9375 0.5-0.47656 1.1875-0.71875 2.0625-0.71875 0.78906 0 1.4219 0.24219 1.8906 0.71875 0.47656 0.48047 0.71875 1.1211 0.71875 1.9219zm-1.6562-0.54688c0-0.30078-0.089844-0.54688-0.26562-0.73438-0.17969-0.1875-0.41406-0.28125-0.70312-0.28125-0.3125 0-0.57031 0.089844-0.76562 0.26562-0.19922 0.16797-0.32031 0.41797-0.35938 0.75z"/>
  </symbol>
  <symbol id="a" overflow="visible">
   <path d="m3.0312-2.2656c-0.33594 0-0.58594 0.058594-0.75 0.17188-0.16797 0.10547-0.25 0.27344-0.25 0.5 0 0.19922 0.066406 0.35938 0.20312 0.48438 0.13281 0.11719 0.32031 0.17188 0.5625 0.17188 0.30078 0 0.55469-0.10938 0.76562-0.32812 0.20703-0.21875 0.3125-0.49219 0.3125-0.82812v-0.17188zm2.4688-0.60938v2.875h-1.625v-0.75c-0.21875 0.3125-0.46484 0.53906-0.73438 0.67188-0.27344 0.13281-0.60156 0.20312-0.98438 0.20312-0.52344 0-0.94922-0.14844-1.2812-0.45312-0.32422-0.30078-0.48438-0.69531-0.48438-1.1875 0-0.59375 0.20312-1.0234 0.60938-1.2969 0.41406-0.28125 1.0547-0.42188 1.9219-0.42188h0.95312v-0.125c0-0.25781-0.10156-0.44531-0.29688-0.5625-0.19922-0.11328-0.51172-0.17188-0.9375-0.17188-0.35547 0-0.68359 0.039062-0.98438 0.10938-0.29297 0.0625-0.5625 0.16406-0.8125 0.29688v-1.2344c0.34375-0.082031 0.6875-0.14453 1.0312-0.1875 0.35156-0.039063 0.70312-0.0625 1.0469-0.0625 0.91406 0 1.5703 0.18359 1.9688 0.54688 0.40625 0.35547 0.60938 0.9375 0.60938 1.75z"/>
  </symbol>
  <symbol id="d" overflow="visible">
   <path d="m2.5312-6.4844v1.4375h1.6719v1.1562h-1.6719v2.1406c0 0.23047 0.046875 0.38672 0.14062 0.46875 0.09375 0.085938 0.28125 0.125 0.5625 0.125h0.82812v1.1562h-1.3906c-0.63672 0-1.0898-0.12891-1.3594-0.39062-0.26172-0.26953-0.39062-0.72266-0.39062-1.3594v-2.1406h-0.79688v-1.1562h0.79688v-1.4375z"/>
  </symbol>
  <symbol id="m" overflow="visible">
   <path d="m4.2188-4.3125v-2.7031h1.6094v7.0156h-1.6094v-0.73438c-0.23047 0.30469-0.48047 0.52344-0.75 0.65625-0.26172 0.13281-0.57031 0.20312-0.92188 0.20312-0.625 0-1.1367-0.24219-1.5312-0.73438-0.39844-0.5-0.59375-1.1328-0.59375-1.9062 0-0.78125 0.19531-1.4141 0.59375-1.9062 0.39453-0.5 0.90625-0.75 1.5312-0.75 0.35156 0 0.66016 0.074219 0.92188 0.21875 0.26953 0.13672 0.51953 0.35156 0.75 0.64062zm-1.0781 3.2656c0.35156 0 0.61719-0.125 0.79688-0.375 0.1875-0.25 0.28125-0.61328 0.28125-1.0938 0-0.47656-0.09375-0.84375-0.28125-1.0938-0.17969-0.25781-0.44531-0.39062-0.79688-0.39062-0.33594 0-0.59375 0.13281-0.78125 0.39062-0.17969 0.25-0.26562 0.61719-0.26562 1.0938 0 0.48047 0.085938 0.84375 0.26562 1.0938 0.1875 0.25 0.44531 0.375 0.78125 0.375z"/>
  </symbol>
  <symbol id="g" overflow="visible">
   <path d="m3.4688-1.0469c0.34375 0 0.60156-0.125 0.78125-0.375 0.1875-0.25 0.28125-0.61328 0.28125-1.0938 0-0.47656-0.09375-0.84375-0.28125-1.0938-0.17969-0.25781-0.4375-0.39062-0.78125-0.39062-0.35547 0-0.625 0.13281-0.8125 0.39062-0.17969 0.25-0.26562 0.61719-0.26562 1.0938 0 0.48047 0.085937 0.84375 0.26562 1.0938 0.1875 0.25 0.45703 0.375 0.8125 0.375zm-1.0781-3.2656c0.21875-0.28906 0.46094-0.50391 0.73438-0.64062 0.26953-0.14453 0.58203-0.21875 0.9375-0.21875 0.625 0 1.1328 0.25 1.5312 0.75 0.40625 0.49219 0.60938 1.125 0.60938 1.9062 0 0.77344-0.20312 1.4062-0.60938 1.9062-0.39844 0.49219-0.90625 0.73438-1.5312 0.73438-0.35547 0-0.66797-0.070312-0.9375-0.20312-0.27344-0.13281-0.51562-0.35156-0.73438-0.65625v0.73438h-1.6094v-7.0156h1.6094z"/>
  </symbol>
  <symbol id="l" overflow="visible">
   <path d="m0.10938-5.0469h1.625l1.3438 3.4219 1.1562-3.4219h1.625l-2.125 5.5312c-0.21875 0.5625-0.46875 0.95312-0.75 1.1719-0.28125 0.22656-0.65625 0.34375-1.125 0.34375h-0.9375v-1.0625h0.5c0.28125 0 0.48438-0.046875 0.60938-0.14062 0.125-0.085937 0.21875-0.24219 0.28125-0.46875l0.046875-0.14062z"/>
  </symbol>
  <symbol id="k" overflow="visible">
   <path d="m0.78125-5.0469h1.6094v5.0469h-1.6094zm0-1.9688h1.6094v1.3125h-1.6094z"/>
  </symbol>
  <symbol id="u" overflow="visible">
   <path d="m3.1406-4c-0.33594 0-0.59375 0.13281-0.78125 0.39062-0.17969 0.25-0.26562 0.61719-0.26562 1.0938 0 0.48047 0.085938 0.84375 0.26562 1.0938 0.1875 0.25 0.44531 0.375 0.78125 0.375 0.35156 0 0.61719-0.125 0.79688-0.375 0.1875-0.25 0.28125-0.61328 0.28125-1.0938 0-0.47656-0.09375-0.84375-0.28125-1.0938-0.17969-0.25781-0.44531-0.39062-0.79688-0.39062zm1.0781 3.2656c-0.23047 0.30469-0.48047 0.52344-0.75 0.65625-0.26172 0.13281-0.57031 0.20312-0.92188 0.20312-0.625 0-1.1367-0.24219-1.5312-0.73438-0.39844-0.5-0.59375-1.1328-0.59375-1.9062 0-0.78125 0.19531-1.4141 0.59375-1.9062 0.39453-0.48828 0.90625-0.73438 1.5312-0.73438 0.35156 0 0.66016 0.070312 0.92188 0.20312 0.26953 0.13672 0.51953 0.35547 0.75 0.65625v-0.75h1.6094v6.9688h-1.6094z"/>
  </symbol>
  <symbol id="f" overflow="visible">
   <path d="m0.78125-7.0156h1.6094v7.0156h-1.6094z"/>
  </symbol>
  <symbol id="j" overflow="visible">
   <path d="m5.8594-3.0781v3.0781h-1.625v-2.3594c0-0.42578-0.011719-0.72266-0.03125-0.89062-0.023437-0.16406-0.058594-0.28906-0.10938-0.375-0.0625-0.10156-0.15234-0.17969-0.26562-0.23438-0.10547-0.0625-0.22656-0.09375-0.35938-0.09375-0.33594 0-0.60156 0.13281-0.79688 0.39062-0.1875 0.26172-0.28125 0.62109-0.28125 1.0781v2.4844h-1.6094v-5.0469h1.6094v0.73438c0.23828-0.28906 0.49219-0.50391 0.76562-0.64062 0.28125-0.14453 0.58594-0.21875 0.92188-0.21875 0.58203 0 1.0234 0.18359 1.3281 0.54688 0.30078 0.35547 0.45312 0.87109 0.45312 1.5469z"/>
  </symbol>
  <symbol id="t" overflow="visible">
   <path d="m4.7188-4.8906v1.2188c-0.34375-0.13281-0.67969-0.23828-1-0.3125-0.32422-0.070313-0.625-0.10938-0.90625-0.10938-0.3125 0-0.54297 0.039062-0.6875 0.10938-0.14844 0.074219-0.21875 0.19531-0.21875 0.35938 0 0.125 0.050781 0.22656 0.15625 0.29688 0.11328 0.0625 0.31641 0.11719 0.60938 0.15625l0.29688 0.03125c0.82031 0.10547 1.375 0.27734 1.6562 0.51562 0.28906 0.24219 0.4375 0.62109 0.4375 1.1406 0 0.53125-0.19922 0.93359-0.59375 1.2031-0.39844 0.27344-0.99219 0.40625-1.7812 0.40625-0.33594 0-0.67969-0.027344-1.0312-0.078125-0.35547-0.050781-0.72656-0.12891-1.1094-0.23438v-1.2188c0.32031 0.15625 0.64844 0.27734 0.98438 0.35938 0.34375 0.074219 0.69141 0.10938 1.0469 0.10938 0.3125 0 0.54688-0.039062 0.70312-0.125 0.16406-0.09375 0.25-0.22266 0.25-0.39062 0-0.14453-0.058594-0.25391-0.17188-0.32812-0.10547-0.070312-0.32422-0.12891-0.65625-0.17188l-0.28125-0.03125c-0.71875-0.09375-1.2266-0.25781-1.5156-0.5-0.28125-0.23828-0.42188-0.60938-0.42188-1.1094 0-0.53125 0.17969-0.92578 0.54688-1.1875 0.36328-0.25781 0.92578-0.39062 1.6875-0.39062 0.28906 0 0.59766 0.027344 0.92188 0.078125 0.33203 0.042969 0.69141 0.10938 1.0781 0.20312z"/>
  </symbol>
  <symbol id="i" overflow="visible">
   <path d="m0.71875-1.9688v-3.0781h1.625v0.5c0 0.27344-0.007812 0.61719-0.015625 1.0312v0.82812c0 0.40625 0.007813 0.69922 0.03125 0.875 0.03125 0.17969 0.066406 0.30859 0.10938 0.39062 0.070312 0.10547 0.16016 0.1875 0.26562 0.25 0.10156 0.054687 0.22656 0.078125 0.375 0.078125 0.33203 0 0.59375-0.125 0.78125-0.375 0.19531-0.25781 0.29688-0.625 0.29688-1.0938v-2.4844h1.6094v5.0469h-1.6094v-0.73438c-0.25 0.30469-0.51172 0.52344-0.78125 0.65625-0.27344 0.13281-0.57031 0.20312-0.89062 0.20312-0.58594 0-1.0312-0.17578-1.3438-0.53125-0.30469-0.35156-0.45312-0.875-0.45312-1.5625z"/>
  </symbol>
  <symbol id="h" overflow="visible">
   <path d="m5.8594-3.0781v3.0781h-1.625v-2.3438c0-0.4375-0.011719-0.73828-0.03125-0.90625-0.023437-0.16406-0.058594-0.28906-0.10938-0.375-0.0625-0.10156-0.15234-0.17969-0.26562-0.23438-0.10547-0.0625-0.22656-0.09375-0.35938-0.09375-0.33594 0-0.60156 0.13281-0.79688 0.39062-0.1875 0.26172-0.28125 0.62109-0.28125 1.0781v2.4844h-1.6094v-7.0156h1.6094v2.7031c0.23828-0.28906 0.49219-0.50391 0.76562-0.64062 0.28125-0.14453 0.58594-0.21875 0.92188-0.21875 0.58203 0 1.0234 0.18359 1.3281 0.54688 0.30078 0.35547 0.45312 0.87109 0.45312 1.5469z"/>
  </symbol>
  <symbol id="s" overflow="visible">
   <path d="m4.0938-7.0156v1.0625h-0.89062c-0.23047 0-0.39062 0.042969-0.48438 0.125-0.085938 0.085937-0.125 0.22656-0.125 0.42188v0.35938h1.375v1.1562h-1.375v3.8906h-1.6094v-3.8906h-0.8125v-1.1562h0.8125v-0.35938c0-0.55078 0.14844-0.95703 0.45312-1.2188 0.30078-0.25781 0.77344-0.39062 1.4219-0.39062z"/>
  </symbol>
  <symbol id="e" overflow="visible">
   <path d="m3.1719-4.0156c-0.35547 0-0.625 0.13281-0.8125 0.39062-0.1875 0.25-0.28125 0.62109-0.28125 1.1094 0 0.48047 0.09375 0.85156 0.28125 1.1094 0.1875 0.25 0.45703 0.375 0.8125 0.375 0.35156 0 0.625-0.125 0.8125-0.375 0.1875-0.25781 0.28125-0.62891 0.28125-1.1094 0-0.48828-0.09375-0.85938-0.28125-1.1094-0.1875-0.25781-0.46094-0.39062-0.8125-0.39062zm0-1.1562c0.875 0 1.5547 0.23438 2.0469 0.70312 0.48828 0.46875 0.73438 1.1211 0.73438 1.9531 0 0.82422-0.24609 1.4688-0.73438 1.9375-0.49219 0.46875-1.1719 0.70312-2.0469 0.70312-0.86719 0-1.5469-0.23438-2.0469-0.70312-0.49219-0.46875-0.73438-1.1133-0.73438-1.9375 0-0.83203 0.24219-1.4844 0.73438-1.9531 0.5-0.46875 1.1797-0.70312 2.0469-0.70312z"/>
  </symbol>
  <symbol id="r" overflow="visible">
   <path d="m5.4531-4.2188c0.20703-0.3125 0.45312-0.54688 0.73438-0.70312 0.28125-0.16406 0.58594-0.25 0.92188-0.25 0.58203 0 1.0234 0.18359 1.3281 0.54688 0.30078 0.35547 0.45312 0.87109 0.45312 1.5469v3.0781h-1.625v-2.6406-0.10938c0.007813-0.039062 0.015625-0.10156 0.015625-0.1875 0-0.35156-0.054688-0.60938-0.15625-0.76562-0.10547-0.16406-0.27734-0.25-0.51562-0.25-0.30469 0-0.53906 0.125-0.70312 0.375-0.16797 0.25-0.25781 0.61719-0.26562 1.0938v2.4844h-1.625v-2.6406c0-0.55078-0.046875-0.90625-0.14062-1.0625-0.09375-0.16406-0.26562-0.25-0.51562-0.25-0.3125 0-0.55469 0.13281-0.71875 0.39062-0.16797 0.25-0.25 0.60938-0.25 1.0781v2.4844h-1.625v-5.0469h1.625v0.73438c0.19531-0.28125 0.42188-0.49219 0.67188-0.64062 0.25781-0.14453 0.54688-0.21875 0.85938-0.21875 0.35156 0 0.66016 0.085937 0.92188 0.25 0.26953 0.16797 0.47266 0.40234 0.60938 0.70312z"/>
  </symbol>
  <symbol id="q" overflow="visible">
   <path d="m0.84375-6.7344h1.9375l2.4531 4.625v-4.625h1.6406v6.7344h-1.9375l-2.4375-4.625v4.625h-1.6562z"/>
  </symbol>
  <symbol id="p" overflow="visible">
   <path d="m0.84375-6.7344h2.8906c0.85156 0 1.5078 0.19531 1.9688 0.57812 0.45703 0.375 0.6875 0.91797 0.6875 1.625 0 0.71094-0.23047 1.2578-0.6875 1.6406-0.46094 0.375-1.1172 0.5625-1.9688 0.5625h-1.1562v2.3281h-1.7344zm1.7344 1.2656v1.875h0.96875c0.33203 0 0.58594-0.078125 0.76562-0.23438 0.1875-0.16406 0.28125-0.39844 0.28125-0.70312 0-0.30078-0.09375-0.53125-0.28125-0.6875-0.17969-0.16406-0.43359-0.25-0.76562-0.25z"/>
  </symbol>
  <symbol id="o" overflow="visible">
   <path d="m0.78125-5.0469h1.6094v4.9531c0 0.67578-0.16406 1.1914-0.48438 1.5469-0.32422 0.36328-0.79688 0.54688-1.4219 0.54688h-0.79688v-1.0625h0.28125c0.3125 0 0.52344-0.074219 0.64062-0.21875 0.11328-0.13672 0.17188-0.40625 0.17188-0.8125zm0-1.9688h1.6094v1.3125h-1.6094z"/>
  </symbol>
  <symbol id="n" overflow="visible">
   <path d="m4.8594-4.8906v1.3125c-0.21875-0.14453-0.44531-0.25391-0.67188-0.32812-0.21875-0.070312-0.44531-0.10938-0.67188-0.10938-0.46094 0-0.8125 0.13281-1.0625 0.39062-0.25 0.26172-0.375 0.63281-0.375 1.1094 0 0.46875 0.125 0.83594 0.375 1.0938 0.25 0.26172 0.60156 0.39062 1.0625 0.39062 0.25 0 0.48438-0.035156 0.70312-0.10938 0.22656-0.070313 0.44141-0.17969 0.64062-0.32812v1.3125c-0.25 0.09375-0.50781 0.16016-0.76562 0.20312-0.26172 0.050781-0.52344 0.078125-0.78125 0.078125-0.91797 0-1.6367-0.22656-2.1562-0.6875-0.51172-0.46875-0.76562-1.1172-0.76562-1.9531 0-0.83203 0.25391-1.4844 0.76562-1.9531 0.51953-0.46875 1.2383-0.70312 2.1562-0.70312 0.25781 0 0.51562 0.027344 0.76562 0.078125 0.25781 0.042969 0.51953 0.10938 0.78125 0.20312z"/>
  </symbol>
 </defs>
 <g>
  <path d="m411.91 341.91v218.09h-341.91v-341.91h218.09v-218.09h341.91v341.91zm-123.83 0v-101.65h-195.91v297.56h297.56v-195.91h-101.65zm22.18-123.83h101.65v101.65h195.91v-297.56h-297.56v195.91z"/>
  <use x="70" y="587.722656" xlink:href="#v"/>
  <use x="76.78125" y="587.722656" xlink:href="#c"/>
  <use x="81.339844" y="587.722656" xlink:href="#b"/>
  <use x="87.605469" y="587.722656" xlink:href="#a"/>
  <use x="93.84375" y="587.722656" xlink:href="#d"/>
  <use x="98.257812" y="587.722656" xlink:href="#b"/>
  <use x="104.527344" y="587.722656" xlink:href="#m"/>
  <use x="114.359375" y="587.722656" xlink:href="#g"/>
  <use x="120.972656" y="587.722656" xlink:href="#l"/>
  <use x="130.214844" y="587.722656" xlink:href="#k"/>
  <use x="133.382812" y="587.722656" xlink:href="#u"/>
  <use x="139.996094" y="587.722656" xlink:href="#g"/>
  <use x="146.613281" y="587.722656" xlink:href="#a"/>
  <use x="152.847656" y="587.722656" xlink:href="#f"/>
  <use x="159.234375" y="587.722656" xlink:href="#j"/>
  <use x="165.8125" y="587.722656" xlink:href="#a"/>
  <use x="172.046875" y="587.722656" xlink:href="#t"/>
  <use x="177.546875" y="587.722656" xlink:href="#c"/>
  <use x="182.105469" y="587.722656" xlink:href="#i"/>
  <use x="188.683594" y="587.722656" xlink:href="#f"/>
  <use x="191.851562" y="587.722656" xlink:href="#f"/>
  <use x="195.019531" y="587.722656" xlink:href="#a"/>
  <use x="201.253906" y="587.722656" xlink:href="#h"/>
  <use x="70" y="596.964844" xlink:href="#s"/>
  <use x="74.019531" y="596.964844" xlink:href="#c"/>
  <use x="78.578125" y="596.964844" xlink:href="#e"/>
  <use x="84.925781" y="596.964844" xlink:href="#r"/>
  <use x="97.773438" y="596.964844" xlink:href="#d"/>
  <use x="102.191406" y="596.964844" xlink:href="#h"/>
  <use x="108.769531" y="596.964844" xlink:href="#b"/>
  <use x="118.253906" y="596.964844" xlink:href="#q"/>
  <use x="125.988281" y="596.964844" xlink:href="#e"/>
  <use x="132.335938" y="596.964844" xlink:href="#i"/>
  <use x="138.914062" y="596.964844" xlink:href="#j"/>
  <use x="148.710937" y="596.964844" xlink:href="#p"/>
  <use x="155.484375" y="596.964844" xlink:href="#c"/>
  <use x="160.039062" y="596.964844" xlink:href="#e"/>
  <use x="166.390625" y="596.964844" xlink:href="#o"/>
  <use x="169.554688" y="596.964844" xlink:href="#b"/>
  <use x="175.824219" y="596.964844" xlink:href="#n"/>
  <use x="181.300781" y="596.964844" xlink:href="#d"/>
 </g>
</svg>
