<?xml version="1.0" encoding="UTF-8"?>
<svg width="700pt" height="700pt" version="1.1" viewBox="0 0 700 700" xmlns="http://www.w3.org/2000/svg">
 <g>
  <path d="m504.53 39.574c-34.57-20.059-76.297-31.09-117.55-31.09-80.469 0-149.48 39.27-189.31 107.79-26.676 45.836-28.898 70.832-30.699 90.906-1.8164 20.125-2.9883 33.414-31.816 64.535-21.109 22.809-28.73 39.473-24.691 54.117 4.7344 17.207 23.062 22.605 37.824 26.949 1.8164 0.52734 3.6133 1.0703 5.3281 1.5938 2.1875 33.074 11.301 122.3 45.582 140.9 7.2969 3.9375 15.645 5.9375 24.793 5.9375 14.543 0 29.203-5.0742 40.93-9.1484 5.9727-2.0547 12.066-4.1758 16.309-4.8359 6.0938 28.238 14.016 53.996 14.391 55.082l2.8516 9.2148h239.36l-6.5352-17.598c-0.13672-0.42578-16.07-43.852-16.07-77.434 0-17.801 14.543-49.941 28.645-81.062 11.438-25.219 23.23-51.332 28.406-72.324l2.3242-9.3828c16.238-65.16 46.566-186.51-70.066-254.15zm44.68 247.82-2.3594 9.4844c-4.582 18.668-15.883 43.613-26.812 67.777-15.934 35.16-30.988 68.406-30.988 91.84 0 24.133 6.7891 51.504 11.965 68.914h-183.19c-2.9531-10.266-7.7539-27.848-11.539-45.836-2.4609-11.691-11.062-18.699-22.992-18.699-8.0938 0-16.801 3.0195-26.914 6.5-15.41 5.3281-33.973 10.777-44.75 4.9023-16.664-9.0117-29.832-73.379-32.445-127.83l-0.39062-8.0273-7.332-3.2734c-4.8711-2.1875-10.402-3.8164-15.816-5.3945-5.7344-1.6953-19.16-5.6328-20.023-8.8398-0.035156-0.066406-1.7305-7.3984 18.668-29.391 34.906-37.691 36.656-57.273 38.676-79.977 1.6641-18.43 3.5117-39.27 27.238-80.113 35.027-60.227 95.812-94.793 166.75-94.793 36.723 0 73.816 9.8086 104.43 27.574 99.66 57.762 74.508 158.53 57.828 225.18z"/>
  <path d="m437.75 74.801c-9.2148-3.3438-40.371-13.152-62.77-1.5273-11.168-4.4805-36.449-9.8086-65.367 15.715-10.961 2.9531-52.266 16.004-70.695 49.312-5.2422 6.1602-32.75 40.473-26.848 72.988 2.9531 16.07 13.184 28.832 29.664 37.453 1.3594 0.86719 33.176 20.941 83.117 5.8711 4.0039 1.8516 8.5859 3.2734 13.762 4.3086 45.004 8.875 61.344 19.617 69.898 45.938 7.6211 23.535 7.1289 33.277 6.5 45.633-0.20312 3.8516-0.39062 7.8906-0.39062 12.457v9.9766h48.195l1.8516-7.6211c5.1094-21.18 15.578-46.496 22.992-50.484 18.887-10.113 53.965-45.613 56.609-80.266l0.27344-3.4453c0.42578-5.3945 0.93359-11.574 1.2227-18.156 0.93359-19.551 3.6836-77.516-40.828-94.301-6.9297-18.855-27.41-46.141-67.188-43.852zm88.258 122.96c-14.219-4.1406-37.453-6.7539-65.793 5.5312-5.0742 2.1875-7.3984 8.0938-5.2109 13.117 1.6289 3.7852 5.3125 6.0234 9.1797 6.0234 1.3242 0 2.6797-0.27344 3.9727-0.83203 27.27-11.863 48.059-6.7031 57.238-3.0898-0.27344 3.8867-0.52734 7.6211-0.79688 10.961l-0.27344 3.5117c-1.9531 25.523-30.953 56.086-46.141 64.195-15.852 8.5195-26.523 39.945-30.953 55.746h-12.387c0.035156-0.49219 0.066406-1 0.10156-1.4609 0.66016-13.289 1.2891-25.812-7.4492-52.828-12.371-38.047-40.539-50.57-85.02-59.395-4.2422-0.83203-7.7227-1.9531-10.469-3.4102-0.62891-0.45703-1.2891-0.89844-2.0195-1.1875-2.1875-1.4922-3.7148-3.2422-4.5469-5.2422-3.2734-7.6211 2.5117-19.516 4.7695-23.027l1.4258-3.3438c0-0.10156 2.5781-10.996 11.895-16.938 6.4297-4.1055 14.918-5.0078 25.219-2.6797l7.2969 1.4258 3.6484-6.4297c0.39063-0.69531 9.8438-16.629 42.219-16.629 5.5 0 9.9766-4.4805 9.9766-9.9766 0-5.5312-4.4805-10.012-9.9766-10.012-31.75 0-48.125 12.898-55.289 20.941-12.965-1.7656-24.367 0.42578-33.836 6.5352-13.523 8.6211-18.699 22.57-20.176 27.645-3.2422 5.5-12.625 23.641-5.6016 40.234 0.16797 0.39062 0.33984 0.79688 0.52734 1.1875-33.805 6.5664-54.117-5.9062-55.746-6.8555-11.691-6.125-18.258-13.914-20.059-23.758-2.1875-11.895 2.918-25.59 9.1484-36.961 8.3164 1.4922 22.672 5.7031 22.672 17.633 0 5.5312 4.4805 10.012 9.9766 10.012 5.5312 0 10.012-4.4805 10.012-10.012 0-20.449-15.852-30.766-30.918-35.332 0.69531-0.83203 1.4258-1.7812 2.0195-2.4258l1.3242-1.918c16.238-30.461 60.258-40.828 60.684-40.93l2.6484-0.59375 1.9531-1.8164c20.348-18.852 37.148-16.699 44.648-14.219 0.23828 18.922-16.578 25.113-18.734 25.812-5.2422 1.5938-8.2148 7.1602-6.6367 12.422 1.3242 4.3086 5.2773 7.0938 9.5703 7.0938 0.96875 0 1.918-0.13672 2.8867-0.42578 12.422-3.75 33.582-18.039 32.82-45.699 14.426-6.1602 38.012 0.35547 46.734 3.8164l2.2227 0.89844 2.3594-0.20312c28.375-2.4609 41.523 15.086 46.902 25.945-33.668 14.391-39.047 41.305-36.551 54.66 0.86719 4.8008 5.0742 8.1797 9.7734 8.1797 0.62891 0 1.2227-0.066406 1.8516-0.16797 5.3945-1 8.9766-6.1953 7.9922-11.641-0.035156-0.23828-3.75-23.332 29.629-34.738 19.273 6.8203 28.762 26.25 29.285 60.648z"/>
 </g>
</svg>
