<?xml version="1.0" encoding="UTF-8"?>
<svg width="700pt" height="700pt" version="1.1" viewBox="0 0 700 700" xmlns="http://www.w3.org/2000/svg" xmlns:xlink="http://www.w3.org/1999/xlink">
 <defs>
  <symbol id="e" overflow="visible">
   <path d="m29.312-1.75c-1.5117 0.78125-3.0898 1.3711-4.7344 1.7656-1.6367 0.40625-3.3398 0.60938-5.1094 0.60938-5.3125 0-9.5273-1.4844-12.641-4.4531-3.1055-2.9688-4.6562-7-4.6562-12.094s1.5508-9.125 4.6562-12.094c3.1133-2.9688 7.3281-4.4531 12.641-4.4531 1.7695 0 3.4727 0.19922 5.1094 0.59375 1.6445 0.39844 3.2227 0.99219 4.7344 1.7812v6.5938c-1.5312-1.0391-3.0391-1.8008-4.5156-2.2812-1.4805-0.48828-3.0391-0.73438-4.6719-0.73438-2.9375 0-5.2461 0.94531-6.9219 2.8281-1.6797 1.875-2.5156 4.4648-2.5156 7.7656 0 3.293 0.83594 5.8828 2.5156 7.7656 1.6758 1.875 3.9844 2.8125 6.9219 2.8125 1.6328 0 3.1914-0.23828 4.6719-0.71875 1.4766-0.48828 2.9844-1.2539 4.5156-2.2969z"/>
  </symbol>
  <symbol id="j" overflow="visible">
   <path d="m21.453-17.406c-0.67969-0.3125-1.3516-0.53906-2.0156-0.6875-0.65625-0.15625-1.3203-0.23438-1.9844-0.23438-1.9688 0-3.4844 0.63281-4.5469 1.8906-1.0547 1.2617-1.5781 3.0703-1.5781 5.4219v11.016h-7.6562v-23.922h7.6562v3.9219c0.97656-1.5625 2.1016-2.7031 3.375-3.4219 1.2812-0.71875 2.8125-1.0781 4.5938-1.0781 0.25 0 0.52344 0.011719 0.82812 0.03125 0.30078 0.023438 0.73438 0.070312 1.2969 0.14062z"/>
  </symbol>
  <symbol id="c" overflow="visible">
   <path d="m27.562-12.031v2.1875h-17.891c0.1875 1.793 0.83203 3.1367 1.9375 4.0312 1.1133 0.89844 2.6719 1.3438 4.6719 1.3438 1.6016 0 3.25-0.23438 4.9375-0.70312 1.6875-0.47656 3.4219-1.2031 5.2031-2.1719v5.8906c-1.8047 0.6875-3.6094 1.2031-5.4219 1.5469-1.8125 0.35156-3.6211 0.53125-5.4219 0.53125-4.3359 0-7.7031-1.0977-10.109-3.2969-2.3984-2.207-3.5938-5.2969-3.5938-9.2656 0-3.9062 1.1758-6.9727 3.5312-9.2031 2.3633-2.2383 5.6094-3.3594 9.7344-3.3594 3.7578 0 6.7695 1.1367 9.0312 3.4062 2.2578 2.2617 3.3906 5.2812 3.3906 9.0625zm-7.8594-2.5312c0-1.457-0.42969-2.6289-1.2812-3.5156-0.84375-0.89453-1.9492-1.3438-3.3125-1.3438-1.4922 0-2.6992 0.41797-3.625 1.25-0.91797 0.83594-1.4922 2.0391-1.7188 3.6094z"/>
  </symbol>
  <symbol id="a" overflow="visible">
   <path d="m14.391-10.766c-1.5938 0-2.793 0.27344-3.5938 0.8125-0.80469 0.54297-1.2031 1.3398-1.2031 2.3906 0 0.96875 0.32031 1.7305 0.96875 2.2812 0.64453 0.54297 1.5469 0.8125 2.7031 0.8125 1.4375 0 2.6445-0.51562 3.625-1.5469 0.98828-1.0312 1.4844-2.3203 1.4844-3.875v-0.875zm11.688-2.8906v13.656h-7.7031v-3.5469c-1.0312 1.4492-2.1875 2.5078-3.4688 3.1719s-2.8398 1-4.6719 1c-2.4805 0-4.4961-0.72266-6.0469-2.1719-1.543-1.4453-2.3125-3.3203-2.3125-5.625 0-2.8125 0.96094-4.8672 2.8906-6.1719 1.9375-1.3125 4.9688-1.9688 9.0938-1.9688h4.5156v-0.60938c0-1.207-0.48047-2.0938-1.4375-2.6562-0.94922-0.5625-2.4375-0.84375-4.4688-0.84375-1.6367 0-3.1562 0.16797-4.5625 0.5-1.4062 0.32422-2.7188 0.8125-3.9375 1.4688v-5.8281c1.6445-0.40625 3.2891-0.70703 4.9375-0.90625 1.6562-0.20703 3.3047-0.3125 4.9531-0.3125 4.3203 0 7.4375 0.85547 9.3438 2.5625 1.9141 1.6992 2.875 4.4609 2.875 8.2812z"/>
  </symbol>
  <symbol id="b" overflow="visible">
   <path d="m12.031-30.719v6.7969h7.875v5.4688h-7.875v10.141c0 1.1172 0.21875 1.8711 0.65625 2.2656 0.4375 0.38672 1.3125 0.57812 2.625 0.57812h3.9375v5.4688h-6.5625c-3.0234 0-5.1641-0.62891-6.4219-1.8906-1.2617-1.2578-1.8906-3.3984-1.8906-6.4219v-10.141h-3.7969v-5.4688h3.7969v-6.7969z"/>
  </symbol>
  <symbol id="i" overflow="visible">
   <path d="m19.953-20.422v-12.812h7.6875v33.234h-7.6875v-3.4531c-1.0547 1.4062-2.2148 2.4375-3.4844 3.0938-1.2734 0.65625-2.7422 0.98438-4.4062 0.98438-2.9492 0-5.3711-1.1719-7.2656-3.5156-1.8867-2.3438-2.8281-5.3594-2.8281-9.0469s0.94141-6.7031 2.8281-9.0469c1.8945-2.3438 4.3164-3.5156 7.2656-3.5156 1.6562 0 3.1172 0.33594 4.3906 1 1.2812 0.65625 2.4453 1.6836 3.5 3.0781zm-5.0469 15.484c1.6445 0 2.8945-0.59766 3.75-1.7969 0.86328-1.1953 1.2969-2.9297 1.2969-5.2031 0-2.2812-0.43359-4.0195-1.2969-5.2188-0.85547-1.1953-2.1055-1.7969-3.75-1.7969-1.625 0-2.8711 0.60156-3.7344 1.7969-0.85547 1.1992-1.2812 2.9375-1.2812 5.2188 0 2.2734 0.42578 4.0078 1.2812 5.2031 0.86328 1.1992 2.1094 1.7969 3.7344 1.7969z"/>
  </symbol>
  <symbol id="h" overflow="visible">
   <path d="m16.406-4.9375c1.6328 0 2.8828-0.59766 3.75-1.7969 0.86328-1.1953 1.2969-2.9297 1.2969-5.2031 0-2.2812-0.43359-4.0195-1.2969-5.2188-0.86719-1.1953-2.1172-1.7969-3.75-1.7969-1.6367 0-2.8906 0.60547-3.7656 1.8125-0.875 1.1992-1.3125 2.9336-1.3125 5.2031 0 2.2617 0.4375 3.9961 1.3125 5.2031 0.875 1.1992 2.1289 1.7969 3.7656 1.7969zm-5.0781-15.484c1.0508-1.3945 2.2188-2.4219 3.5-3.0781 1.2812-0.66406 2.7539-1 4.4219-1 2.9453 0 5.3672 1.1719 7.2656 3.5156 1.8945 2.3438 2.8438 5.3594 2.8438 9.0469s-0.94922 6.7031-2.8438 9.0469c-1.8984 2.3438-4.3203 3.5156-7.2656 3.5156-1.668 0-3.1406-0.33594-4.4219-1s-2.4492-1.6914-3.5-3.0781v3.4531h-7.6562v-33.234h7.6562z"/>
  </symbol>
  <symbol id="g" overflow="visible">
   <path d="m0.53125-23.922h7.6562l6.4219 16.234 5.4688-16.234h7.6562l-10.062 26.188c-1.0117 2.6641-2.1953 4.5234-3.5469 5.5781-1.3438 1.0625-3.1211 1.5938-5.3281 1.5938h-4.4219v-5.0156h2.3906c1.3008 0 2.2422-0.21094 2.8281-0.625 0.59375-0.40625 1.0547-1.1484 1.3906-2.2188l0.20312-0.65625z"/>
  </symbol>
  <symbol id="f" overflow="visible">
   <path d="m27.734-14.562v14.562h-7.7031v-11.109c0-2.0938-0.046875-3.5312-0.14062-4.3125-0.085937-0.78125-0.24219-1.3594-0.46875-1.7344-0.30469-0.5-0.71094-0.88281-1.2188-1.1562-0.51172-0.28125-1.0938-0.42188-1.75-0.42188-1.5938 0-2.8516 0.61719-3.7656 1.8438-0.90625 1.2305-1.3594 2.9375-1.3594 5.125v11.766h-7.6562v-33.234h7.6562v12.812c1.1445-1.3945 2.3633-2.4219 3.6562-3.0781 1.3008-0.66406 2.7383-1 4.3125-1 2.7578 0 4.8516 0.85156 6.2812 2.5469 1.4375 1.6875 2.1562 4.1523 2.1562 7.3906z"/>
  </symbol>
  <symbol id="d" overflow="visible">
   <path d="m3.6719-23.922h7.6562v23.922h-7.6562zm0-9.3125h7.6562v6.2344h-7.6562z"/>
  </symbol>
  <symbol id="n" overflow="visible">
   <path d="m1.5312-23.922h7.4375l4.0156 16.484 4.0469-16.484h6.375l4.0156 16.312 4.0469-16.312h7.4375l-6.3125 23.922h-8.3438l-4.0469-16.453-4.0156 16.453h-8.3438z"/>
  </symbol>
  <symbol id="m" overflow="visible">
   <path d="m32.688-2.375c-2.0547 1-4.1836 1.75-6.3906 2.25-2.2109 0.5-4.4844 0.75-6.8281 0.75-5.3125 0-9.5273-1.4844-12.641-4.4531-3.1055-2.9688-4.6562-7-4.6562-12.094 0-5.1328 1.5781-9.1758 4.7344-12.125 3.1641-2.9453 7.5-4.4219 13-4.4219 2.125 0 4.1562 0.19922 6.0938 0.59375 1.9453 0.39844 3.7852 0.99219 5.5156 1.7812v6.5938c-1.7812-1.0078-3.5547-1.7656-5.3125-2.2656-1.7617-0.5-3.5273-0.75-5.2969-0.75-3.2734 0-5.793 0.91797-7.5625 2.75-1.7734 1.8359-2.6562 4.4492-2.6562 7.8438 0 3.375 0.85156 5.9844 2.5625 7.8281 1.707 1.8359 4.1328 2.75 7.2812 2.75 0.85156 0 1.6445-0.050781 2.375-0.15625 0.73828-0.10156 1.3984-0.26953 1.9844-0.5v-6.2031h-5.0312v-5.5h12.828z"/>
  </symbol>
  <symbol id="l" overflow="visible">
   <path d="m27.734-14.562v14.562h-7.7031v-11.156c0-2.0625-0.046875-3.4844-0.14062-4.2656-0.085937-0.78125-0.24219-1.3594-0.46875-1.7344-0.30469-0.5-0.71094-0.88281-1.2188-1.1562-0.51172-0.28125-1.0938-0.42188-1.75-0.42188-1.5938 0-2.8516 0.61719-3.7656 1.8438-0.90625 1.2305-1.3594 2.9375-1.3594 5.125v11.766h-7.6562v-23.922h7.6562v3.5c1.1445-1.3945 2.3633-2.4219 3.6562-3.0781 1.3008-0.66406 2.7383-1 4.3125-1 2.7578 0 4.8516 0.85156 6.2812 2.5469 1.4375 1.6875 2.1562 4.1523 2.1562 7.3906z"/>
  </symbol>
  <symbol id="k" overflow="visible">
   <path d="m3.6719-33.234h7.6562v18.094l8.7969-8.7812h8.8906l-11.688 10.969 12.594 12.953h-9.2656l-9.3281-9.9688v9.9688h-7.6562z"/>
  </symbol>
 </defs>
 <g>
  <path d="m433.12 354.38 61.25 26.25v-70l-61.25-26.25z"/>
  <path d="m503.12 380.62 61.25-26.25v-70l-61.25 26.25z"/>
  <path d="m498.75 249.38-61.25 26.25 61.25 26.25 61.25-26.25z"/>
  <path d="m470.23 178.06c-4.4922 1.4648-7.0078 6.2266-5.6875 10.762 1.4648 4.5352 6.2852 7.0625 10.848 5.6875 4.5625-1.3906 7.168-6.1758 5.8633-10.762-1.5-4.4102-6.1914-6.875-10.676-5.6016z"/>
  <path d="m264.6 249.11 18.727-3.5h-0.003906c4.6211-1.0078 7.6016-5.5039 6.7383-10.152-0.88672-4.6836-5.3594-7.7969-10.062-7-6.4766 1.3398-12.602 2.4805-18.375 3.4141-4.5664 0.88672-7.6445 5.1914-7 9.8008 0.32422 2.3125 1.5625 4.4023 3.4336 5.8008 1.875 1.3945 4.2305 1.9844 6.543 1.6367z"/>
  <path d="m405.91 215.34 18.199-5.3359c4.5938-1.3555 7.2461-6.1523 5.9492-10.762-1.3906-4.5156-6.1172-7.1133-10.676-5.8633l-18.113 5.25c-4.5078 1.3555-7.1367 6.0312-5.9492 10.586 1.2812 4.582 5.9805 7.3008 10.59 6.125z"/>
  <path d="m335.82 233.89 18.375-4.5508c4.6133-1.2383 7.3789-5.9531 6.2148-10.586-1.2812-4.4961-5.8633-7.1914-10.414-6.125l-18.289 4.5508c-4.5586 1.1641-7.3789 5.7266-6.3867 10.324 1.1641 4.6406 5.8438 7.4883 10.5 6.3867z"/>
  <path d="m175 61.25c-19.602 0.23828-37.734 10.43-48.125 27.051-10.391 16.621-11.609 37.387-3.2383 55.113l47.426 101.59c0.73047 1.5078 2.2617 2.4688 3.9375 2.4688s3.207-0.96094 3.9375-2.4688l47.426-101.85c8.2539-17.699 6.9688-38.375-3.4062-54.918-10.375-16.547-28.43-26.703-47.957-26.98zm0 70c-4.6406 0-9.0938-1.8438-12.375-5.125s-5.125-7.7344-5.125-12.375 1.8438-9.0938 5.125-12.375 7.7344-5.125 12.375-5.125 9.0938 1.8438 12.375 5.125 5.125 7.7344 5.125 12.375-1.8438 9.0938-5.125 12.375-7.7344 5.125-12.375 5.125z"/>
  <path d="m512.31 184.54c0.73047 1.5078 2.2617 2.4648 3.9375 2.4648s3.207-0.95703 3.9375-2.4648l35.613-72.273v-0.003906c5.7969-13.281 4.5078-28.59-3.4297-40.715-7.9375-12.129-21.453-19.434-35.945-19.434-14.492 0-28.008 7.3047-35.945 19.434-7.9375 12.125-9.2266 27.434-3.4297 40.715zm3.9375-105.79c5.3086 0 10.094 3.1992 12.125 8.1016 2.0312 4.9062 0.91016 10.551-2.8438 14.305s-9.3984 4.875-14.305 2.8438c-4.9023-2.0312-8.1016-6.8164-8.1016-12.125 0-7.25 5.875-13.125 13.125-13.125z"/>
  <path d="m221.55 244.74c0 4.832-3.918 8.75-8.75 8.75s-8.75-3.918-8.75-8.75 3.918-8.75 8.75-8.75 8.75 3.918 8.75 8.75"/>
  <path d="m172.99 311.5c-6.6875 1.1055-12.777 4.5195-17.207 9.6523-4.4297 5.1328-6.918 11.656-7.0312 18.434v15.051c0.11328 6.0039 2.6172 11.715 6.9492 15.867 4.3359 4.1562 10.148 6.4102 16.152 6.2695h4.1133-0.003906c12.59 21.336 35.516 34.43 60.289 34.43s47.699-13.094 60.289-34.43h4.1133-0.003906c6.0039 0.14062 11.816-2.1133 16.152-6.2695 4.332-4.1523 6.8359-9.8633 6.9492-15.867v-15.051c-0.11328-6.7773-2.6016-13.301-7.0312-18.434-4.4297-5.1328-10.52-8.5469-17.207-9.6523-7.6016-16.055-21.027-28.617-37.547-35.141-16.523-6.5273-34.906-6.5273-51.43 0-16.52 6.5234-29.945 19.086-37.547 35.141zm133.26 43.137c-0.32031 2.7969-2.793 4.8438-5.6016 4.6367h-128.8c-2.8086 0.20703-5.2812-1.8398-5.6016-4.6367v-15.051c0.35938-6.1797 5.3633-11.07 11.551-11.285l37.363-3.1484c7-0.61328 14.086-0.875 21.086-0.875s14.086 0 21.086 0.875l37.363 3.1484c6.1875 0.21484 11.191 5.1055 11.551 11.285z"/>
  <path d="m551.25 8.75h-402.5c-18.566 0-36.371 7.375-49.496 20.504-13.129 13.125-20.504 30.93-20.504 49.496v175c0.0625 15.059 4.9453 29.699 13.938 41.777s21.617 20.957 36.023 25.336l5.0742-16.801h0.003906c-10.844-3.2227-20.355-9.8633-27.117-18.93-6.7656-9.0625-10.418-20.07-10.422-31.383v-175c0-13.926 5.5312-27.277 15.375-37.125 9.8477-9.8438 23.199-15.375 37.125-15.375h402.5c13.926 0 27.277 5.5312 37.125 15.375 9.8438 9.8477 15.375 23.199 15.375 37.125v175c0.003906 8.8398-2.2227 17.539-6.4766 25.289-12.215-33.156-40.289-57.945-74.703-65.961-34.41-8.0156-70.547 1.8125-96.16 26.156-25.609 24.344-37.258 59.938-30.996 94.711 6.2578 34.777 29.59 64.07 62.086 77.953 32.492 13.883 69.789 10.488 99.242-9.0273 29.457-19.516 47.121-52.535 47.008-87.871-0.042969-4.6836-0.39453-9.3633-1.0508-14 11.879-12.875 18.496-29.734 18.551-47.25v-175c0-18.566-7.375-36.371-20.504-49.496-13.125-13.129-30.93-20.504-49.496-20.504zm-52.5 393.75c-23.207 0-45.461-9.2188-61.871-25.629s-25.629-38.664-25.629-61.871 9.2188-45.461 25.629-61.871 38.664-25.629 61.871-25.629 45.461 9.2188 61.871 25.629 25.629 38.664 25.629 61.871-9.2188 45.461-25.629 61.871-38.664 25.629-61.871 25.629z"/>
  <path d="m341.25 306.25v17.5h52.5v-8.75-8.75z"/>
  <path d="m152.34 551.25h148.75c2.3203 0 4.5469-0.92188 6.1875-2.5625 1.6406-1.6406 2.5625-3.8672 2.5625-6.1875v-70l21-6.0391c26.031-7.418 48.77-23.461 64.488-45.5l12.863-17.5c3.1172-4.543 3.7656-10.34 1.7305-15.461-2.0391-5.1211-6.4922-8.8906-11.875-10.055-5.3867-1.1641-11 0.42969-14.969 4.2539l-1.4883 1.3984v0.003906c-18.172 18.254-41.789 30.105-67.285 33.773l-20.738 2.625h-98.262c-26.25 0-51.711 14.086-51.711 35l-0.003906 87.5c0 2.3203 0.92187 4.5469 2.5625 6.1875 1.6445 1.6406 3.8672 2.5625 6.1875 2.5625z"/>
  <use x="70" y="691.25" xlink:href="#e"/>
  <use x="102.109375" y="691.25" xlink:href="#j"/>
  <use x="123.683594" y="691.25" xlink:href="#c"/>
  <use x="153.355469" y="691.25" xlink:href="#a"/>
  <use x="182.878906" y="691.25" xlink:href="#b"/>
  <use x="203.792969" y="691.25" xlink:href="#c"/>
  <use x="233.464844" y="691.25" xlink:href="#i"/>
  <use x="280.011719" y="691.25" xlink:href="#h"/>
  <use x="311.328125" y="691.25" xlink:href="#g"/>
  <use x="355.078125" y="691.25" xlink:href="#e"/>
  <use x="387.1875" y="691.25" xlink:href="#f"/>
  <use x="418.332031" y="691.25" xlink:href="#a"/>
  <use x="447.855469" y="691.25" xlink:href="#d"/>
  <use x="462.851562" y="691.25" xlink:href="#n"/>
  <use x="503.269531" y="691.25" xlink:href="#a"/>
  <use x="532.792969" y="691.25" xlink:href="#b"/>
  <use x="568.9375" y="691.25" xlink:href="#m"/>
  <use x="604.847656" y="691.25" xlink:href="#d"/>
  <use x="619.84375" y="691.25" xlink:href="#l"/>
  <use x="650.992188" y="691.25" xlink:href="#k"/>
  <use x="680.085937" y="691.25" xlink:href="#a"/>
 </g>
</svg>
